<?xml version="1.0" standalone="no"?>
<!DOCTYPE svg PUBLIC "-//W3C//DTD SVG 20010904//EN"
 "http://www.w3.org/TR/2001/REC-SVG-20010904/DTD/svg10.dtd">
<svg version="1.0" xmlns="http://www.w3.org/2000/svg"
 width="945.000000pt" height="945.000000pt" viewBox="0 0 945.000000 945.000000"
 preserveAspectRatio="xMidYMid meet">
<metadata>
Created by potrace 1.14, written by Peter Selinger 2001-2017
</metadata>
<g transform="translate(0.000000,945.000000) scale(0.100000,-0.100000)"
fill="#000000" stroke="none">
<path d="M4505 9444 c-380 -24 -709 -74 -1015 -155 -179 -47 -401 -119 -396
-128 3 -4 54 -11 113 -15 780 -47 1685 -306 2385 -682 929 -498 1698 -1229
2220 -2109 98 -166 109 -187 201 -370 324 -649 511 -1297 592 -2050 22 -202
31 -762 16 -976 -22 -318 -62 -607 -127 -922 -20 -92 -34 -176 -32 -185 4 -19
76 76 203 268 146 221 316 538 407 760 345 838 445 1647 317 2545 -94 655
-348 1326 -716 1890 -457 699 -1080 1256 -1823 1629 -656 330 -1305 490 -2030
500 -140 2 -282 2 -315 0z"/>
<path d="M2389 8839 c-1023 -585 -1781 -1512 -2152 -2634 -470 -1418 -232
-2996 635 -4223 177 -250 404 -507 648 -734 112 -105 283 -248 294 -248 3 0 6
196 6 435 l0 435 23 5 c12 3 103 23 202 46 724 162 1269 348 1795 610 232 116
328 171 515 293 876 575 1369 1275 1502 2136 25 161 25 567 0 730 -108 713
-442 1356 -1002 1929 -576 590 -1326 1019 -2189 1256 -71 19 -135 35 -141 35
-6 0 -67 -32 -136 -71z"/>
<path d="M4673 3 c31 -2 83 -2 115 0 31 2 5 3 -58 3 -63 0 -89 -1 -57 -3z"/>
</g>
</svg>
